PathFileType	4	(x/y/z)	S04_M20_T39.trc
DataRate	CameraRate	NumFrames	NumMarkers	Units	OrigDataRate	OrigDataStartFrame	OrigNumFrames
240	240	5	51	mm	240	130	519
Frame#	Time	Sternum			R.Acromium			L.Acromium			Top.Head			R.ASIS			L.ASIS			R.PSIS			L.PSIS			R.Great.Tro			L.Great.Tro			R.Iliac.Crest			L.Iliac.Crest			V.Sacral			R.Thigh.Upper.Post			R.Thigh.Lower.Ant			R.Thigh.Lower.Post			R.Thigh.Upper.Ant			R.Knee.Lat			R.Knee.Med			R.Shank.Upper.Post			R.Shank.Lower.Ant			R.Shank.Lower.Post			R.Shank.Upper.Ant			R.Ankle.Lat			R.Ankle.Med			R.Heel.Upper			R.Heel.Med			R.Heel.Lat			R.Toe.Lat			R.Toe.Med			R.Toe.Tip			L.Thigh.Upper.Post			L.Thigh.Lower.Ant			L.Thigh.Lower.Post			L.Thigh.Upper.Ant			L.Knee.Lat			L.Knee.Med			L.Shank.Upper.Post			L.Shank.Lower.Ant			L.Shank.Lower.Post			L.Shank.Upper.Ant			L.Ankle.Lat			L.Ankle.Med			L.Heel.Upper			L.Heel.Med			L.Heel.Lat			L.Toe.Lat			L.Toe.Med			L.Toe.Tip			Cervical.Spine			Back			
		X1	Y1	Z1	X2	Y2	Z2	X3	Y3	Z3	X4	Y4	Z4	X5	Y5	Z5	X6	Y6	Z6	X7	Y7	Z7	X8	Y8	Z8	X9	Y9	Z9	X10	Y10	Z10	X11	Y11	Z11	X12	Y12	Z12	X13	Y13	Z13	X14	Y14	Z14	X15	Y15	Z15	X16	Y16	Z16	X17	Y17	Z17	X18	Y18	Z18	X19	Y19	Z19	X20	Y20	Z20	X21	Y21	Z21	X22	Y22	Z22	X23	Y23	Z23	X24	Y24	Z24	X25	Y25	Z25	X26	Y26	Z26	X27	Y27	Z27	X28	Y28	Z28	X29	Y29	Z29	X30	Y30	Z30	X31	Y31	Z31	X32	Y32	Z32	X33	Y33	Z33	X34	Y34	Z34	X35	Y35	Z35	X36	Y36	Z36	X37	Y37	Z37	X38	Y38	Z38	X39	Y39	Z39	X40	Y40	Z40	X41	Y41	Z41	X42	Y42	Z42	X43	Y43	Z43	X44	Y44	Z44	X45	Y45	Z45	X46	Y46	Z46	X47	Y47	Z47	X48	Y48	Z48	X49	Y49	Z49	X50	Y50	Z50	X51	Y51	Z51	

130	0.5375	-95.065	1271.8	236.62	-212.08	1501.6	415.71	-237.97	1482.8	66.071	-188.63	1826.3	230.53	-103.94	993.09	368.27	-133.89	1003	116.13	-327.95	1028.9	296.79	-329.21	1035.5	216.92	-176.14	918.9	445.97	-266.75	925.14	72.288	-192.15	1081.2	424.29	-234.8	1086.1	83.719	-350.23	990.73	258.17	-66.314	679.38	436.94	34.961	641.89	393.25	-25.75	599.74	417.75	-6.6565	742.25	416.78	20.928	549.8	406.26	-4.8811	537.55	271.36	-34.534	321.67	406.89	38.452	248.29	367.15	-29.455	251.77	392.86	30.436	318.15	389.28	-7.4617	134.43	377.39	13.646	151.85	288.05	-66.617	93.259	318.44	-52.28	65.475	288.37	-57.835	61.397	352.2	111.08	77.184	403.72	146.67	87.762	288.56	204.42	115.96	336.89	-314.88	697.86	98.797	-249.38	590.23	104.46	-318.97	609.48	112.94	-250.11	679.07	85.125	-298.11	509.14	120.77	-290.38	501.36	246.91	-413.45	343.85	134.51	-357.65	247.97	140.02	-419.14	267.01	146.14	-351.97	323.67	127.75	-399.22	104.09	168.45	-400.3	116.15	261.62	-482.59	75.706	214.11	-477.24	49.347	246.83	-478.03	48.541	185.62	-293.32	40.099	150.5	-265.01	43.626	268.05	-206.39	50.66	219.7	-274.2	1546.4	248.53	-356.39	1287.8	235.77
131	0.54167	-90.169	1271	236.51	-206.77	1500.8	415.84	-233.04	1482	66.198	-183.58	1825.5	230.67	-98.832	992.41	367.88	-129.59	1002.2	115.82	-323.04	1028.2	297.12	-324.54	1034.9	217.25	-170.77	918.28	445.91	-262.75	924.67	72.405	-186.57	1080.5	424.18	-230.53	1085.5	83.803	-345.42	990.03	258.55	-60.952	678.78	436.86	40.357	641.53	393.06	-20.239	599.24	417.59	-1.4471	741.79	416.67	26.912	549.67	406.07	0.89185	537.07	271.24	-24.274	320.53	406.89	50.02	248.64	366.96	-17.843	250.76	392.86	40.677	318.34	389.12	6.6061	133.85	377.31	26.927	151.76	287.91	-52.153	91.53	318.64	-37.31	64.031	288.55	-42.426	59.832	352.34	126.34	79.02	403.14	161.17	90.321	287.77	218.56	119.66	335.84	-312.08	697.87	98.942	-247.11	589.91	104.49	-316.61	609.5	113.01	-247.41	678.76	85.191	-296.34	509.02	120.76	-288.42	501.16	246.89	-412.39	344.2	134.66	-356.98	248.08	140.07	-418.37	267.39	146.28	-351.01	323.76	127.8	-399.06	104.24	168.62	-400.01	116.36	261.75	-482.5	75.919	214.32	-477.15	49.519	247.01	-477.96	48.787	185.8	-293.31	40.103	150.52	-264.93	43.541	268.06	-206.31	50.488	219.69	-269.04	1545.7	248.72	-351.52	1287.2	236.05
132	0.54583	-85.256	1270.1	236.42	-201.42	1500	415.97	-228.08	1481.3	66.331	-178.51	1824.8	230.81	-93.709	991.71	367.49	-125.29	1001.5	115.52	-318.12	1027.5	297.45	-319.85	1034.2	217.6	-165.38	917.63	445.84	-258.74	924.18	72.527	-180.95	1079.7	424.07	-226.27	1084.8	83.891	-340.59	989.32	258.93	-55.621	678.14	436.78	45.715	641.1	392.86	-14.768	598.69	417.44	3.738	741.27	416.55	32.839	549.5	405.89	6.6142	536.52	271.13	-14.076	319.43	406.88	61.501	249.06	366.78	-6.2949	249.82	392.85	50.836	318.56	388.97	20.59	133.39	377.22	40.137	151.75	287.76	-37.735	89.926	318.81	-22.388	62.719	288.7	-27.076	58.41	352.46	141.46	80.985	402.58	175.54	92.981	287	232.54	123.45	334.84	-309.25	697.87	99.095	-244.83	589.58	104.52	-314.22	609.51	113.1	-244.7	678.43	85.259	-294.54	508.89	120.76	-286.42	500.96	246.89	-411.31	344.55	134.83	-356.3	248.19	140.12	-417.59	267.76	146.42	-350.03	323.85	127.87	-398.9	104.4	168.79	-399.72	116.58	261.89	-482.39	76.154	214.54	-477.05	49.713	247.2	-477.9	49.054	185.99	-293.3	40.109	150.55	-264.84	43.454	268.08	-206.22	50.312	219.69	-263.87	1544.9	248.92	-346.65	1286.6	236.33
133	0.55	-80.325	1269.2	236.32	-196.05	1499.1	416.12	-223.1	1480.5	66.47	-173.42	1824	230.96	-88.57	990.98	367.1	-120.97	1000.6	115.23	-313.18	1026.8	297.78	-315.15	1033.5	217.95	-159.99	916.95	445.78	-254.72	923.69	72.654	-175.28	1078.9	423.96	-222.01	1084.1	83.982	-335.75	988.58	259.33	-50.318	677.46	436.72	51.035	640.62	392.67	-9.3353	598.1	417.31	8.8999	740.71	416.42	38.709	549.28	405.73	12.287	535.92	271.02	-3.942	318.35	406.84	72.889	249.52	366.62	5.1835	248.94	392.82	60.912	318.8	388.82	34.48	133.04	377.12	53.27	151.84	287.6	-23.367	88.447	318.94	-7.5213	61.539	288.82	-11.795	57.131	352.55	156.43	83.073	402.05	189.78	95.738	286.27	246.35	127.33	333.88	-306.4	697.86	99.258	-242.52	589.24	104.54	-311.81	609.51	113.19	-241.97	678.1	85.327	-292.72	508.76	120.77	-284.39	500.74	246.89	-410.2	344.91	135.01	-355.6	248.31	140.19	-416.79	268.15	146.58	-349.02	323.95	127.94	-398.73	104.58	168.96	-399.41	116.81	262.04	-482.28	76.415	214.77	-476.93	49.932	247.39	-477.83	49.345	186.19	-293.29	40.116	150.58	-264.75	43.367	268.1	-206.13	50.131	219.68	-258.67	1544.2	249.13	-341.75	1286	236.62
134	0.55417	-75.376	1268.3	236.24	-190.66	1498.2	416.27	-218.1	1479.7	66.616	-168.3	1823.1	231.12	-83.414	990.22	366.71	-116.64	999.82	114.95	-308.22	1026	298.12	-310.42	1032.7	218.31	-154.58	916.24	445.72	-250.68	923.18	72.787	-169.57	1078.1	423.85	-217.75	1083.4	84.076	-330.88	987.83	259.73	-45.043	676.74	436.65	56.32	640.08	392.48	-3.9408	597.46	417.18	14.04	740.1	416.28	44.524	549.01	405.57	17.913	535.26	270.93	6.1225	317.32	406.79	84.18	250.05	366.46	16.587	248.12	392.79	70.901	319.07	388.68	48.266	132.79	377.01	66.322	152.01	287.44	-9.0564	87.094	319.04	7.285	60.493	288.9	3.4064	55.994	352.61	171.24	85.28	401.54	203.88	98.589	285.59	259.99	131.3	332.99	-303.52	697.84	99.431	-240.18	588.9	104.57	-309.37	609.51	113.3	-239.21	677.76	85.396	-290.86	508.62	120.78	-282.32	500.51	246.9	-409.06	345.28	135.19	-354.88	248.43	140.26	-415.97	268.54	146.75	-347.99	324.05	128.02	-398.56	104.78	169.14	-399.1	117.05	262.19	-482.15	76.704	215.01	-476.82	50.178	247.6	-477.75	49.661	186.4	-293.28	40.124	150.61	-264.66	43.279	268.12	-206.04	49.946	219.68	-253.45	1543.4	249.35	-336.83	1285.3	236.91
